<?xml version="1.0" encoding="utf-8"?>
<svg viewBox="0 0 512 512" xmlns="http://www.w3.org/2000/svg">
  <rect style="stroke: rgb(0, 0, 0);" x="157.121" y="165.274" width="310.623" height="310.623" rx="10" ry="10" transform="matrix(0.707107, 0.707107, -0.707107, 0.707107, 263.20874, -190.17746)"/>
  <path style="stroke: rgb(0, 0, 0);" d="M -553.258 -575.796 H -450.567 V -438.105 H -553.258 A 35 35 0 0 1 -588.258 -473.105 V -540.796 A 35 35 0 0 1 -553.258 -575.796 Z" transform="matrix(0.707106, 0.707107, -0.707107, 0.707106, 98.673668, 815.610229)"/>
  <path style="stroke: rgb(0, 0, 0);" transform="matrix(0.707106, 0.707108, -0.707108, 0.707106, 431.172546, 1148.11145)" d="M -588.258 -575.797 H -485.567 A 35 35 0 0 1 -450.567 -540.797 V -473.106 A 35 35 0 0 1 -485.567 -438.106 H -588.258 V -575.797 Z"/>
  <path style="stroke: rgb(0, 0, 0);" transform="matrix(0.707107, -0.707106, 0.707106, 0.707107, 1148.110229, 81.050758)" d="M -588.258 -575.796 H -485.567 A 35 35 0 0 1 -450.567 -540.796 V -473.105 A 35 35 0 0 1 -485.567 -438.105 H -588.258 V -575.796 Z"/>
  <path style="stroke: rgb(0, 0, 0);" transform="matrix(0.707106, 0.707107, -0.707107, 0.707106, 98.673668, 1148.110229)" d="M -588.258 -575.796 H -450.567 V -473.105 A 35 35 0 0 1 -485.567 -438.105 H -553.258 A 35 35 0 0 1 -588.258 -473.105 V -575.796 Z"/>
</svg>