<?xml version="1.0" encoding="utf-8"?>
<svg viewBox="0 0 512 512" xmlns="http://www.w3.org/2000/svg">
  <rect style="stroke: rgb(0, 0, 0);" x="142.478" y="149.871" width="281.674" height="281.674" rx="10" ry="10" transform="matrix(0.707107, 0.707107, -0.707107, 0.707107, 261.122894, -149.999893)"/>
  <path style="stroke: rgb(0, 0, 0);" d="M -515.12 -538.466 H -421.356 V -409.702 H -515.12 A 35 35 0 0 1 -550.12 -444.702 V -503.466 A 35 35 0 0 1 -515.12 -538.466 Z" transform="matrix(0.707106, 0.707107, -0.707107, 0.707106, 108.768379, 779.224731)"/>
  <path style="stroke: rgb(0, 0, 0);" transform="matrix(0.707106, 0.707108, -0.707108, 0.707106, 419.710693, 1090.169189)" d="M -550.12 -538.467 H -456.356 A 35 35 0 0 1 -421.356 -503.467 V -444.703 A 35 35 0 0 1 -456.356 -409.703 H -550.12 V -538.467 Z"/>
  <path style="stroke: rgb(0, 0, 0);" transform="matrix(0.707107, -0.707106, 0.707106, 0.707107, 1090.167847, 92.288155)" d="M -550.12 -538.466 H -456.356 A 35 35 0 0 1 -421.356 -503.466 V -444.702 A 35 35 0 0 1 -456.356 -409.702 H -550.12 V -538.466 Z"/>
  <path style="stroke: rgb(0, 0, 0);" transform="matrix(0.707106, 0.707107, -0.707107, 0.707106, 108.768379, 1090.167969)" d="M -550.12 -538.466 H -421.356 V -444.702 A 35 35 0 0 1 -456.356 -409.702 H -515.12 A 35 35 0 0 1 -550.12 -444.702 V -538.466 Z"/>
</svg>